<?xml version="1.0" standalone="no"?>
<!DOCTYPE svg PUBLIC "-//W3C//DTD SVG 20010904//EN"
 "http://www.w3.org/TR/2001/REC-SVG-20010904/DTD/svg10.dtd">
<svg version="1.0" xmlns="http://www.w3.org/2000/svg"
 width="3000.000000pt" height="2000.000000pt" viewBox="0 0 3000.000000 2000.000000"
 preserveAspectRatio="xMidYMid meet">

<g transform="translate(0.000000,2000.000000) scale(0.100000,-0.100000)"
fill="#000000" stroke="none">
<path d="M7526 16257 c-111 -75 -215 -176 -249 -243 -29 -57 -53 -134 -68
-220 -21 -116 -36 -783 -28 -1234 3 -118 -1 -222 -9 -286 -11 -77 -12 -173 -7
-390 4 -159 5 -325 4 -369 -9 -321 2 -1029 16 -1043 3 -3 0 -11 -6 -19 -7 -7
37 4 97 26 160 58 162 58 173 80 14 25 15 353 1 367 -15 15 -18 709 -2 723 6
7 13 36 14 66 0 30 1 60 2 65 1 6 -3 9 -9 8 -6 -2 -12 121 -15 347 -5 323 -4
351 13 369 15 18 17 43 17 223 0 129 -4 203 -10 203 -6 0 -10 66 -10 178 0
124 -4 182 -12 190 -9 9 -7 17 10 35 21 22 21 30 22 300 1 152 -2 281 -5 287
-3 5 3 20 14 32 22 23 27 63 11 88 -6 10 -4 20 6 32 10 10 13 25 9 37 -4 15
-1 23 10 27 9 4 14 13 11 21 -3 7 1 16 9 19 8 4 15 15 15 25 0 10 5 19 10 19
6 0 10 7 10 15 0 9 12 26 26 39 15 12 25 27 23 33 -2 6 -44 -17 -93 -50z"/>
<path d="M10256 16251 c-27 -30 -13 -63 26 -59 17 2 36 11 42 21 9 15 7 22
-13 38 -29 24 -34 24 -55 0z"/>
<path d="M9451 15966 c-25 -27 -23 -52 8 -80 28 -25 62 -16 88 23 29 44 29 46
-9 65 -43 22 -61 20 -87 -8z"/>
<path d="M9900 15942 c0 -5 10 -18 23 -30 23 -22 28 -22 358 -22 309 0 336 2
358 19 50 38 26 41 -365 41 -206 0 -374 -4 -374 -8z"/>
<path d="M7818 15333 c-5 -11 6 -210 12 -217 3 -2 608 -7 1345 -10 2231 -10
3168 -16 3202 -22 62 -11 64 -20 61 -238 -2 -108 0 -196 4 -196 4 0 5 -6 2
-14 -4 -12 5 -16 43 -18 31 -2 48 -7 47 -15 -1 -7 -2 -221 -2 -476 l-2 -464
-29 5 c-25 3 -32 13 -57 74 -61 153 -170 323 -278 436 -66 69 -187 172 -203
172 -5 0 -18 8 -29 18 -56 52 -243 132 -381 162 -139 30 -326 41 -638 38
l-290 -3 -3 -22 c-2 -16 2 -23 12 -23 13 0 16 -17 17 -102 1 -57 3 -95 6 -85
10 39 477 12 663 -38 231 -63 441 -204 641 -431 122 -140 166 -199 220 -303
51 -98 73 -116 126 -107 21 4 57 9 81 12 l42 6 0 -261 0 -260 43 -11 c23 -6
80 -23 126 -37 70 -21 85 -23 96 -11 11 10 15 245 22 1213 5 660 6 1203 3
1207 -3 3 -603 9 -1335 12 -731 3 -1832 9 -2446 12 -614 3 -1119 2 -1121 -3z"/>
<path d="M6515 14581 c-33 -10 -71 -23 -85 -29 -43 -17 -110 -71 -129 -103
-10 -17 -29 -38 -41 -46 -22 -16 -23 -15 -17 9 4 15 10 34 14 44 5 13 -7 7
-38 -17 -24 -19 -67 -50 -96 -68 -61 -38 -119 -100 -139 -147 -55 -132 69
-299 261 -348 139 -37 257 -9 547 126 81 38 143 99 192 188 35 64 60 160 39
147 -6 -4 -22 18 -38 51 -35 75 -94 134 -166 167 -66 29 -194 48 -208 31 -5
-6 -43 -80 -85 -163 l-76 -153 242 -1 c134 -1 249 -1 256 0 6 1 12 -3 12 -9 0
-6 -62 -10 -181 -10 -117 0 -178 -3 -174 -10 4 -6 -5 -10 -20 -10 -15 0 -24 4
-20 10 4 6 -18 10 -58 10 l-65 0 -21 -45 c-12 -25 -26 -45 -31 -45 -14 0 -13
5 9 50 l19 40 -64 0 c-36 0 -63 4 -60 9 3 5 34 8 68 7 l63 -1 82 160 c45 88
82 163 82 168 1 9 -4 9 -74 -12z m16 -68 c-12 -20 -14 -14 -5 12 4 9 9 14 11
11 3 -2 0 -13 -6 -23z m-204 -229 c-3 -3 -12 -4 -19 -1 -8 3 -5 6 6 6 11 1 17
-2 13 -5z m90 0 c-3 -3 -12 -4 -19 -1 -8 3 -5 6 6 6 11 1 17 -2 13 -5z m126
-51 c-7 -2 -19 -2 -25 0 -7 3 -2 5 12 5 14 0 19 -2 13 -5z m-196 -9 c-3 -3
-12 -4 -19 -1 -8 3 -5 6 6 6 11 1 17 -2 13 -5z m33 -14 c0 -5 -5 -10 -11 -10
-5 0 -7 5 -4 10 3 6 8 10 11 10 2 0 4 -4 4 -10z m51 -53 c-8 -8 -11 -7 -11 4
0 20 13 34 18 19 3 -7 -1 -17 -7 -23z"/>
<path d="M7958 14543 c-31 -26 -59 -60 -63 -74 -4 -17 -17 -29 -40 -38 l-35
-12 0 -463 c0 -528 -3 -507 74 -462 25 14 58 26 74 26 46 0 92 11 92 23 0 6 7
18 16 28 8 9 44 76 80 150 82 167 141 255 228 342 78 77 206 166 283 196 148
58 303 81 604 88 383 9 401 4 373 -116 -12 -53 -14 -164 -14 -648 l1 -585 102
7 c56 4 121 11 144 15 32 5 40 4 36 -6 -6 -17 -24 -20 -275 -44 -113 -11 -309
-34 -435 -51 -125 -17 -244 -32 -263 -35 -19 -2 -62 -9 -95 -15 -83 -16 -94
-18 -145 -24 -24 -4 -47 -8 -51 -11 -4 -2 -24 -6 -45 -10 -22 -3 -57 -10 -79
-15 -22 -6 -69 -17 -105 -25 -204 -46 -408 -96 -502 -123 -59 -17 -114 -28
-122 -25 -21 8 -303 -82 -346 -111 -19 -12 -89 -42 -155 -65 -66 -23 -165 -62
-220 -86 -99 -44 -132 -53 -120 -34 3 6 -4 10 -16 10 -22 0 -22 0 -3 15 17 13
7 14 -101 15 -110 0 -124 -2 -171 -26 -29 -14 -57 -36 -63 -48 -9 -18 -10 -16
-6 14 l5 35 -21 -25 c-11 -14 -17 -19 -13 -11 4 9 3 12 -4 7 -6 -3 -9 -15 -7
-26 2 -12 -2 -20 -10 -20 -9 0 -12 -6 -8 -17 5 -13 3 -15 -13 -9 -15 6 -17 5
-6 -5 16 -17 15 -26 -2 -32 -11 -4 -13 -1 -9 11 4 11 3 14 -4 7 -5 -5 -16 -26
-23 -45 -29 -80 -47 -109 -80 -131 -19 -13 -39 -26 -43 -27 -4 -2 -6 45 -4
105 4 107 4 109 65 249 34 78 62 145 62 148 0 3 -27 6 -60 6 -33 0 -60 4 -60
10 0 6 29 10 68 10 l68 0 74 168 c40 92 90 206 111 255 l38 87 -462 1 c-254 0
-474 1 -489 2 -35 3 -135 -78 -140 -112 -2 -15 -15 -31 -33 -41 -19 -11 -31
-26 -33 -43 -4 -34 8 -36 271 -39 202 -3 209 -4 227 -25 15 -19 16 -29 7 -65
-6 -25 -12 -215 -14 -448 -1 -223 -6 -416 -9 -430 -3 -14 -78 -98 -173 -195
-92 -93 -182 -190 -199 -215 -47 -68 -82 -169 -83 -244 -1 -59 3 -72 48 -159
28 -52 63 -111 79 -130 l28 -36 240 -1 c162 0 244 -4 253 -12 24 -20 -6 -28
-93 -27 -45 1 -87 -2 -94 -6 -7 -4 -15 -3 -19 1 -3 5 -46 7 -96 4 -103 -6
-173 1 -185 20 -6 9 -10 7 -15 -9 -3 -11 -11 -21 -17 -21 -5 0 -23 -13 -38
-30 -15 -16 -32 -30 -38 -30 -5 0 -13 -11 -16 -24 -3 -13 -22 -33 -41 -45 -27
-16 -35 -27 -35 -50 0 -16 6 -31 15 -35 30 -11 115 -17 345 -25 l235 -8 102
-46 c56 -25 114 -49 130 -53 62 -15 434 -158 521 -200 52 -25 126 -60 165 -78
40 -18 77 -39 84 -47 9 -11 12 -86 14 -261 l1 -246 27 8 c14 5 73 23 131 41
58 17 107 33 110 36 3 2 7 141 10 308 3 167 8 307 12 311 8 7 227 -72 299
-107 20 -10 39 -25 43 -34 3 -9 6 -77 6 -151 0 -75 4 -133 8 -130 5 3 39 -6
76 -20 l69 -25 81 22 c224 58 347 85 352 78 7 -12 20 -7 -257 -78 -130 -33
-248 -65 -263 -71 -15 -5 -43 -10 -63 -10 -49 0 -337 -85 -371 -110 -25 -18
-166 -67 -364 -126 -167 -50 -496 -171 -625 -230 -17 -8 -36 -14 -43 -14 -6 0
-39 -13 -73 -29 -34 -16 -102 -45 -152 -65 -166 -68 -511 -240 -659 -329 -182
-109 -410 -288 -475 -372 -14 -18 -39 -50 -54 -69 -16 -19 -44 -63 -63 -98
-38 -68 -36 -43 1 33 27 52 77 117 161 209 l59 64 -70 -49 c-189 -131 -328
-257 -389 -349 -44 -68 -76 -156 -83 -233 -5 -58 -3 -69 30 -136 101 -204 275
-296 637 -338 136 -15 503 -16 695 0 282 22 655 83 910 148 55 14 139 28 188
30 l87 6 0 -793 c0 -682 2 -805 16 -884 48 -272 265 -510 535 -586 173 -49
158 -48 1799 -55 850 -3 1741 -7 1980 -9 615 -5 675 2 918 109 69 30 131 55
139 55 7 0 13 5 13 10 0 6 6 10 14 10 8 0 28 11 44 25 17 14 34 25 39 25 6 0
18 9 28 20 10 11 24 20 30 20 16 0 165 160 165 177 0 7 4 13 8 13 4 0 16 15
27 33 10 17 21 34 24 37 11 9 51 88 51 99 0 6 -9 11 -20 11 -12 0 -20 -7 -20
-18 0 -9 -9 -23 -20 -30 -11 -7 -20 -22 -20 -35 0 -13 -9 -26 -22 -32 -15 -6
-23 -18 -22 -33 0 -12 -4 -22 -11 -22 -6 0 -29 -18 -50 -40 -21 -22 -46 -40
-55 -40 -10 0 -25 -9 -35 -20 -10 -11 -23 -20 -28 -20 -6 0 -20 -9 -31 -19
-28 -26 -195 -82 -276 -93 -37 -5 -755 -8 -1670 -7 -883 2 -1819 3 -2080 3
-340 1 -477 4 -482 12 -5 7 -33 11 -72 9 -43 -1 -64 2 -63 9 1 6 -11 11 -28
11 -16 0 -35 6 -41 14 -7 8 -21 12 -37 9 -16 -3 -25 -1 -24 6 1 6 -8 11 -20
10 -12 0 -20 3 -18 7 3 4 -10 14 -28 22 -18 9 -43 27 -56 41 -13 13 -29 22
-36 20 -13 -5 -135 111 -135 127 0 13 -33 48 -40 44 -4 -3 -5 7 -2 20 4 21 1
24 -13 19 -14 -6 -16 -3 -10 15 4 14 2 23 -9 27 -9 3 -16 15 -16 25 0 10 -4
19 -10 19 -5 0 -10 16 -10 35 0 20 -5 34 -11 33 -7 -2 -12 20 -13 62 0 37 -5
64 -11 63 -13 -2 -8 1652 5 1676 10 20 322 127 339 116 6 -3 11 -28 11 -55 l0
-48 38 19 c20 10 129 64 242 118 622 301 980 576 1168 896 48 82 92 208 92
262 -1 58 -44 197 -81 259 -48 80 -168 205 -266 276 -82 60 -110 93 -54 64 16
-9 62 -40 101 -70 l73 -55 86 3 c141 4 238 -10 298 -44 64 -37 99 -38 147 -5
20 14 45 25 55 25 9 0 40 7 67 15 43 12 55 22 88 72 69 102 52 173 -55 225
-147 72 -515 64 -993 -22 l-159 -29 -181 83 c-100 46 -217 98 -261 116 -44 18
-94 38 -112 46 -17 8 -38 14 -46 14 -9 0 -18 4 -21 9 -3 5 -52 25 -108 46 -57
21 -112 45 -123 55 -27 23 -325 132 -343 125 -15 -5 -121 29 -157 51 -11 7
-57 24 -101 38 -109 34 -392 145 -399 157 -11 18 25 9 122 -30 54 -21 192 -73
306 -115 183 -68 209 -75 222 -62 12 11 15 40 14 128 -1 124 -10 185 -21 156
-7 -16 -28 -18 -237 -18 -195 0 -232 2 -245 16 -12 11 -13 20 -6 34 6 10 10
55 10 99 l0 81 -297 1 c-164 1 -282 5 -263 9 l35 7 -38 2 c-31 1 -38 4 -35 19
3 16 27 17 301 20 265 2 297 4 297 18 0 15 -30 16 -297 13 -231 -3 -297 -1
-300 9 -3 8 12 13 54 14 32 1 69 3 83 4 14 1 123 2 243 3 l217 1 0 185 c0 176
-1 185 -19 185 -11 0 -26 -7 -34 -15 -12 -11 -16 -12 -19 -3 -4 10 -66 12
-266 9 -261 -3 -262 -3 -262 18 0 21 2 21 300 21 266 0 300 2 300 16 0 14 -31
15 -294 9 -215 -5 -296 -3 -301 5 -4 6 -5 13 -3 16 3 2 138 4 301 5 287 0 297
1 297 19 0 19 -11 20 -302 23 l-303 2 303 3 c199 1 302 6 302 12 0 7 -97 10
-295 8 -162 -1 -298 1 -301 5 -19 18 29 22 302 25 l294 3 0 25 0 25 -265 -3
c-146 -2 -265 0 -265 3 0 26 487 319 530 319 5 0 10 -18 10 -40 0 -22 1 -40 3
-40 1 0 36 9 77 20 41 11 87 20 103 20 l27 0 1 -587 c1 -324 1 -591 0 -595 0
-5 57 -8 129 -8 114 0 130 2 139 18 6 10 11 303 13 724 3 613 5 709 18 721 18
17 262 103 305 108 l30 4 3 -66 3 -67 47 15 c81 24 359 90 539 127 545 112
1185 187 1220 144 10 -11 13 -211 13 -871 l1 -857 133 0 c97 0 137 4 151 14
18 13 19 28 17 265 -2 182 1 251 9 251 7 0 9 9 5 23 -3 12 -8 80 -11 151 l-4
129 64 128 c83 164 84 201 2 49 l-62 -115 -3 40 c-4 43 12 164 33 260 24 110
44 210 49 245 5 34 5 35 -8 10 -8 -14 -17 -41 -20 -60 -4 -19 -15 -71 -25
-115 l-18 -80 -2 386 -2 386 118 7 c65 3 163 9 218 13 92 6 99 5 86 -10 -18
-22 -3 -22 22 1 15 13 41 18 119 20 155 6 148 12 149 -116 1 -59 3 -100 5 -92
4 13 34 15 212 13 471 -6 960 -41 1192 -84 94 -18 299 -90 330 -116 22 -18 30
-33 30 -58 0 -42 -25 -101 -47 -114 -10 -6 -15 -11 -11 -11 5 0 -40 -42 -99
-93 -150 -129 -173 -169 -127 -217 16 -17 100 -21 202 -11 34 4 67 4 73 0 7
-4 9 -70 6 -195 -6 -203 -7 -215 -18 -209 -3 3 -13 -3 -20 -12 -8 -9 -113 -96
-234 -192 -271 -215 -395 -323 -547 -471 -106 -103 -118 -112 -118 -88 l0 26
-196 2 c-139 0 -200 -3 -210 -11 -11 -9 -18 -9 -26 -1 -9 9 -80 12 -236 12
-210 0 -224 1 -211 17 8 10 0 7 -18 -7 -56 -40 -50 -11 7 40 30 27 51 49 47
50 -5 0 -34 -23 -65 -50 -37 -33 -62 -48 -72 -44 -8 4 -24 6 -35 5 -41 -5 -81
-3 -105 4 -19 5 -22 4 -10 -4 9 -7 10 -11 3 -11 -22 0 -24 19 -3 30 14 8 20 8
20 0 0 -6 4 -9 9 -5 6 3 8 14 6 25 -2 11 0 20 6 20 5 0 9 7 9 15 0 8 -5 15
-11 15 -8 0 -7 6 2 17 13 15 12 15 -9 4 -12 -7 -20 -16 -18 -20 3 -4 -6 -6
-19 -3 -14 2 -22 8 -19 13 3 5 -2 12 -10 15 -9 3 -16 12 -16 20 0 8 -6 14 -12
14 -10 0 -9 3 1 9 7 5 14 30 16 57 2 27 1 43 -2 37 -2 -7 -11 -13 -19 -13 -20
0 -6 26 22 38 26 13 32 32 10 32 -20 0 -29 17 -15 26 8 4 9 3 5 -4 -4 -7 -1
-12 7 -12 21 0 28 12 16 27 -9 10 -8 13 0 13 7 0 9 5 6 10 -3 6 0 10 9 10 8 0
17 -6 19 -12 3 -7 3 2 0 21 -4 23 -3 32 5 27 6 -3 13 -2 17 4 3 5 1 10 -5 10
-6 0 -9 4 -6 9 3 5 -2 12 -11 15 -15 6 -15 8 -3 17 12 8 10 10 -8 6 -21 -5
-23 -3 -18 19 5 19 3 24 -13 24 -10 0 -22 -7 -25 -16 -3 -8 -11 -12 -17 -8
-11 7 -58 -42 -59 -61 0 -5 -11 -32 -25 -60 -13 -27 -25 -60 -25 -72 0 -12 -4
-24 -9 -27 -16 -10 -20 -64 -11 -172 4 -60 6 -113 2 -119 -10 -15 -20 34 -22
105 -1 36 -5 74 -10 85 -9 21 -11 -3 -12 -130 0 -58 0 -59 -7 -15 l-6 45 -8
-42 -7 -43 -78 -1 c-100 -2 -185 -2 -595 1 l-339 2 -39 -28 c-21 -16 -39 -32
-39 -36 0 -5 -7 -8 -15 -8 -9 0 -15 -9 -15 -22 0 -28 -8 -39 -42 -61 -29 -18
-37 -50 -15 -64 32 -21 1025 -34 1392 -18 187 8 191 8 255 40 82 41 364 134
427 140 64 7 35 -6 -87 -40 -189 -52 -412 -147 -470 -200 -14 -13 -50 -39 -80
-58 -89 -57 -122 -105 -105 -156 18 -57 104 -63 473 -31 240 21 272 19 272
-17 0 -9 -40 -69 -89 -133 -164 -214 -226 -329 -266 -486 -21 -84 -19 -115 10
-196 35 -96 74 -149 146 -197 242 -161 563 -101 1277 239 198 94 327 144 344
133 11 -6 2 -2649 -8 -2685 -5 -17 6 -18 129 -18 98 0 137 4 145 13 8 9 13
485 18 1603 4 874 9 1670 13 1768 l6 179 61 21 c90 31 114 50 114 90 0 38 -19
58 -71 75 -45 14 -93 16 -233 7 -111 -7 -161 -3 -151 14 3 5 57 7 127 5 149
-6 147 -8 148 124 l0 94 154 156 c85 86 166 170 180 186 22 25 27 28 36 15 9
-13 14 -10 36 15 44 53 105 145 150 229 l44 81 0 -376 0 -376 31 -7 c47 -9
227 -7 233 3 3 4 18 6 33 4 20 -3 24 -2 14 5 -8 6 -12 19 -8 31 3 12 1 21 -4
21 -5 0 -9 71 -9 160 l0 160 28 1 c22 1 23 2 5 6 -29 6 -35 48 -31 228 l3 140
35 6 35 6 -31 2 c-29 1 -32 4 -38 44 -3 23 -6 156 -5 296 1 139 -3 257 -8 261
-4 5 -86 10 -180 11 l-173 2 -42 -33 c-24 -19 -44 -38 -46 -42 -2 -4 -10 -8
-18 -8 -11 0 -14 -8 -12 -27 2 -22 10 -29 33 -34 17 -4 26 -8 20 -9 -28 -5
-41 -9 -57 -15 -11 -4 -18 -1 -21 12 -3 10 -5 0 -5 -22 0 -22 2 -33 4 -25 4
13 18 15 77 12 158 -8 180 -28 153 -136 -9 -36 -16 -91 -16 -123 0 -32 -3 -69
-7 -82 -6 -22 -7 -21 -27 20 -31 63 -78 95 -169 115 -74 16 -82 16 -150 0 -75
-17 -257 -98 -257 -114 0 -5 -28 -25 -62 -46 -260 -155 -611 -466 -1061 -943
-78 -83 -43 -72 -362 -103 -115 -12 -224 -23 -241 -26 -36 -7 -57 13 -22 20
33 6 283 37 343 41 28 2 85 7 129 10 l79 7 311 313 c386 388 571 546 802 685
56 34 85 59 88 73 3 12 7 131 9 263 l5 242 99 98 c111 110 153 179 153 251 0
56 -19 92 -72 137 -50 43 -152 96 -184 96 -12 0 -65 12 -116 26 -135 37 -244
61 -313 67 -33 4 -73 8 -90 11 -127 21 -167 27 -215 30 -30 3 -107 9 -170 15
-181 16 -636 32 -906 30 -190 -1 -248 2 -254 12 -7 10 -61 10 -282 0 -150 -6
-305 -14 -344 -18 l-71 -6 -7 242 c-5 170 -3 247 4 262 7 11 9 38 6 58 -3 21
-6 207 -7 413 -1 284 2 381 11 399 18 33 66 96 109 142 19 20 30 37 24 37 -11
0 -42 -34 -109 -118 l-34 -44 0 71 c0 59 -3 72 -19 80 -21 12 -558 13 -565 2
-3 -4 -34 -8 -70 -9 -48 -2 -66 1 -66 10 0 7 -5 5 -11 -5 -10 -18 -11 -18 -25
0 -12 17 -13 17 -14 1 0 -10 -8 -19 -17 -20 -60 -5 -73 -4 -73 6 0 6 -7 3 -14
-6 -19 -25 -26 -22 -27 10 -2 23 -2 24 -6 5 -7 -37 -40 -27 -34 10 0 4 -208 7
-463 7 -255 0 -476 2 -492 5 -24 5 -39 -3 -86 -42z m470 -90 c-71 -2 -185 -2
-255 0 -71 1 -13 3 127 3 140 0 198 -2 128 -3z m202 -11 c0 -5 21 -7 48 -5 33
3 43 1 33 -6 -8 -5 -40 -10 -70 -10 -31 0 -57 -4 -59 -10 -5 -15 -85 -14 -101
2 -11 10 -13 10 -7 0 9 -16 -30 -18 -39 -3 -4 6 -13 7 -24 1 -9 -5 -22 -6 -29
-2 -6 3 -64 8 -129 10 -198 4 -140 11 103 11 131 0 235 4 244 10 19 12 30 13
30 2z m-481 -39 c97 -6 88 -13 -15 -12 -49 0 -83 3 -76 6 6 2 9 10 6 15 -5 7
-2 8 7 3 7 -5 43 -10 78 -12z m489 0 c-10 -2 -26 -2 -35 0 -10 3 -2 5 17 5 19
0 27 -2 18 -5z m-381 -9 c-3 -3 -12 -4 -19 -1 -8 3 -5 6 6 6 11 1 17 -2 13 -5z
m359 -29 c-38 -31 -109 -37 -371 -33 -198 3 -200 3 -203 25 l-3 23 208 3 c114
1 251 3 303 4 l95 2 -29 -24z m-349 -222 c-8 -12 -207 -17 -207 -5 0 4 48 10
106 11 58 1 104 -2 101 -6z m78 -3 c-3 -5 -17 -10 -31 -10 -14 0 -22 4 -19 10
3 6 17 10 31 10 14 0 22 -4 19 -10z m-20 -30 c-4 -6 -62 -10 -141 -10 -83 0
-134 4 -134 10 0 6 54 10 141 10 91 0 138 -4 134 -10z m-82 -27 c-34 -2 -93
-2 -130 0 -37 2 -9 3 62 3 72 0 102 -1 68 -3z m15 -22 l34 -1 -30 -37 c-41
-53 -102 -163 -147 -265 -22 -49 -45 -88 -52 -88 -10 0 -13 39 -13 179 0 99
-3 186 -6 194 -8 22 13 24 214 18z m-1611 -1127 c-3 -3 -12 -4 -19 -1 -8 3 -5
6 6 6 11 1 17 -2 13 -5z m6075 -319 c-6 -34 -12 -32 -12 6 0 16 4 28 9 25 4
-3 6 -17 3 -31z m-41 -112 c-14 -27 -67 -73 -161 -143 -47 -35 -102 -79 -122
-99 -21 -19 -38 -30 -38 -24 0 19 53 66 157 141 54 38 114 86 132 106 39 40
46 44 32 19z m-5942 -256 c-90 -45 -166 -81 -168 -80 -2 2 11 39 30 83 l34 80
134 0 133 0 -163 -83z m6509 -144 c-10 -2 -26 -2 -35 0 -10 3 -2 5 17 5 19 0
27 -2 18 -5z m-6918 -106 c0 -8 -21 -29 -47 -47 -152 -109 -306 -274 -373
-398 -42 -78 -46 -64 -5 18 55 109 177 244 322 356 48 38 90 72 91 76 6 12 12
9 12 -5z m80 -211 c0 -2 -8 -10 -17 -17 -16 -13 -17 -12 -4 4 13 16 21 21 21
13z m6630 -66 c11 -6 22 -26 26 -45 3 -20 13 -39 20 -43 11 -6 3 -22 -37 -73
-90 -112 -79 -99 -363 -402 -199 -212 -463 -438 -525 -450 -14 -3 -91 -6 -171
-6 -80 -1 -166 -4 -192 -8 -33 -4 -48 -2 -48 6 0 6 12 11 27 11 21 0 63 36
202 174 193 192 395 366 425 366 17 0 18 -7 14 -107 -3 -75 -10 -118 -21 -140
-10 -18 -70 -87 -135 -153 -165 -169 -116 -158 101 22 137 114 309 274 324
301 8 15 12 79 13 199 0 97 4 188 9 201 10 27 107 91 186 124 81 34 115 39
145 23z m-6855 -543 c50 -60 115 -112 139 -112 11 0 21 -6 24 -14 3 -8 0 -11
-6 -7 -6 3 -12 1 -14 -6 -3 -9 -12 -7 -34 6 -35 23 -124 113 -124 127 0 5 -7
12 -15 15 -17 7 -55 104 -55 142 0 18 8 6 23 -38 12 -37 39 -86 62 -113z
m4084 136 c-8 -9 -9 -14 -2 -10 8 5 9 0 5 -15 -3 -12 -7 -17 -10 -10 -2 6 -8
12 -13 12 -6 0 -8 -4 -5 -8 2 -4 0 -14 -5 -22 -7 -11 -8 -8 -5 10 3 14 5 28 5
32 2 11 33 39 39 34 2 -3 -1 -13 -9 -23z m28 -53 c-1 -21 -10 -18 -13 5 -1 8
2 15 6 15 5 0 8 -9 7 -20z m-73 -36 c3 -8 2 -12 -4 -9 -6 3 -10 10 -10 16 0
14 7 11 14 -7z m-17 -36 c-3 -8 -6 -5 -6 6 -1 11 2 17 5 13 3 -3 4 -12 1 -19z
m160 -274 c0 -7 -6 -10 -14 -7 -7 3 -13 8 -13 12 0 4 6 8 13 8 8 0 14 -6 14
-13z m763 -135 c11 -20 11 -20 -14 -4 -30 20 -32 25 -11 25 8 0 19 -9 25 -21z
m803 -247 c-76 -64 -679 -426 -694 -416 -17 10 -8 20 29 33 24 9 68 46 127
108 81 83 94 93 123 91 17 -1 34 -8 37 -16 4 -11 11 -10 37 6 18 11 107 65
198 121 91 55 167 101 170 101 3 -1 -9 -13 -27 -28z m-700 -140 c-127 -151
-197 -249 -258 -364 -25 -46 -45 -79 -45 -75 0 21 96 190 155 272 76 107 245
308 252 302 2 -3 -44 -63 -104 -135z m1021 -38 c60 -15 112 -41 141 -71 12
-11 15 -44 15 -152 0 -98 4 -142 13 -155 13 -17 16 -17 65 8 28 14 59 26 68
26 25 0 54 -30 53 -54 -1 -18 -2 -18 -6 -3 -3 10 -16 23 -31 28 -22 9 -43 1
-151 -54 -438 -224 -738 -342 -971 -383 -161 -27 -263 -2 -319 79 -28 42 -48
107 -32 107 5 0 11 18 15 40 3 22 10 40 14 40 8 0 151 86 700 419 l234 141 65
0 c36 0 93 -7 127 -16z m-4461 -755 c3 -33 7 -62 9 -65 2 -2 36 5 74 16 155
45 344 90 430 101 l90 12 82 -41 c133 -66 225 -156 288 -282 24 -46 28 -68 29
-135 0 -57 -5 -90 -17 -115 -31 -62 -104 -171 -149 -224 -24 -28 -44 -53 -43
-56 1 -10 -21 -28 -28 -23 -5 2 -8 -3 -8 -11 0 -9 -4 -16 -9 -16 -5 0 -26 -16
-47 -35 -20 -19 -41 -35 -45 -35 -5 0 -9 -5 -9 -10 0 -16 154 83 268 173 152
119 282 268 314 358 6 16 12 28 15 25 3 -2 -5 -25 -16 -51 -73 -165 -306 -380
-601 -556 -209 -124 -586 -299 -645 -299 -12 0 -69 -17 -126 -38 -57 -21 -124
-44 -149 -52 -25 -7 -52 -20 -61 -27 -21 -17 -333 -113 -369 -113 -14 0 -30
-4 -36 -9 -13 -14 -380 -86 -559 -110 -272 -37 -368 -44 -600 -45 -201 -1
-244 2 -341 21 -205 42 -320 89 -383 158 -43 47 -48 67 -30 124 34 108 44 124
116 201 206 219 562 414 1193 653 409 154 665 230 714 211 15 -6 17 -58 17
-563 0 -306 0 -564 1 -573 2 -23 4 -23 133 13 77 21 115 37 127 52 16 20 18
71 18 668 0 500 3 649 13 662 11 14 50 28 237 82 25 7 57 14 71 14 25 1 26 -2
32 -60z"/>
<path d="M12483 14535 c0 -27 2 -38 4 -22 2 15 2 37 0 50 -2 12 -4 0 -4 -28z"/>
<path d="M12418 14393 c12 -2 30 -2 40 0 9 3 -1 5 -23 4 -22 0 -30 -2 -17 -4z"/>
<path d="M12492 14240 c0 -14 2 -19 5 -12 2 6 2 18 0 25 -3 6 -5 1 -5 -13z"/>
<path d="M12504 13845 c0 -82 2 -115 3 -72 2 43 2 110 0 150 -1 40 -3 5 -3
-78z"/>
<path d="M10549 13941 c-94 -55 -217 -139 -264 -180 -124 -109 -257 -265 -279
-326 -9 -26 -6 -22 53 65 106 157 265 297 486 427 50 29 86 53 80 53 -5 0 -40
-18 -76 -39z"/>
<path d="M10528 13888 c-48 -29 -102 -66 -120 -81 -26 -23 -22 -21 18 6 28 19
86 55 130 81 43 25 74 46 69 46 -6 0 -49 -24 -97 -52z"/>
<path d="M13070 13774 c0 -15 22 -44 31 -39 17 11 10 41 -11 42 -11 1 -20 -1
-20 -3z"/>
<path d="M10334 13754 c-18 -14 -18 -15 4 -4 12 6 22 13 22 15 0 8 -5 6 -26
-11z"/>
<path d="M10274 13708 l-29 -33 33 29 c30 28 37 36 29 36 -2 0 -16 -15 -33
-32z"/>
<path d="M10168 13598 c-34 -28 -140 -178 -125 -178 2 0 18 21 35 48 17 26 49
69 72 95 42 47 47 58 18 35z"/>
<path d="M9957 13350 c-3 -11 -1 -20 4 -20 5 0 9 9 9 20 0 11 -2 20 -4 20 -2
0 -6 -9 -9 -20z"/>
<path d="M9962 13250 c0 -14 2 -19 5 -12 2 6 2 18 0 25 -3 6 -5 1 -5 -13z"/>
<path d="M17630 13213 c-26 -24 -53 -43 -59 -43 -6 0 -11 -11 -11 -24 0 -16 7
-26 23 -30 21 -6 20 -8 -13 -26 l-35 -18 25 -10 c13 -5 55 -10 93 -11 76 -2
114 -15 122 -42 3 -9 -1 -46 -9 -82 -11 -48 -15 -138 -17 -358 l-1 -293 23
-16 c81 -52 150 -113 193 -170 46 -61 75 -82 77 -57 3 42 0 1209 -3 1212 -2 2
-83 5 -181 7 l-178 3 -49 -42z"/>
<path d="M6941 13050 c0 -8 -15 -44 -33 -80 -17 -36 -32 -67 -33 -70 -1 -3 -5
-13 -9 -22 -5 -10 -5 -25 -2 -34 4 -9 2 -13 -5 -8 -7 4 -10 1 -7 -7 3 -8 -4
-19 -16 -26 -18 -10 -11 -12 49 -12 l70 1 -40 13 c-34 11 -41 22 -10 15 47
-10 45 -13 44 63 l-1 72 -25 -57 c-15 -32 -30 -58 -35 -58 -14 0 -9 16 27 97
21 45 34 88 32 103 -2 14 -5 18 -6 10z"/>
<path d="M6790 12970 c-6 -11 -8 -20 -6 -20 3 0 10 9 16 20 6 11 8 20 6 20 -3
0 -10 -9 -16 -20z"/>
<path d="M6859 12933 c-13 -16 -12 -17 4 -4 9 7 17 15 17 17 0 8 -8 3 -21 -13z"/>
<path d="M6837 12863 c-10 -9 -9 -23 1 -23 5 0 9 7 9 15 0 17 -1 18 -10 8z"/>
<path d="M10362 12810 c0 -19 2 -27 5 -17 2 9 2 25 0 35 -3 9 -5 1 -5 -18z"/>
<path d="M10256 12768 c-29 -29 -69 -74 -89 -99 -47 -60 -117 -188 -117 -214
1 -11 16 12 34 50 38 80 97 162 180 253 71 75 65 83 -8 10z"/>
<path d="M6718 12793 c7 -3 16 -2 19 1 4 3 -2 6 -13 5 -11 0 -14 -3 -6 -6z"/>
<path d="M6828 12763 c23 -2 61 -2 85 0 23 2 4 4 -43 4 -47 0 -66 -2 -42 -4z"/>
<path d="M6782 12708 c-10 -24 -24 -54 -31 -68 l-11 -25 5 26 c3 19 -2 32 -23
50 l-27 24 20 -24 c14 -17 16 -25 8 -28 -7 -3 -13 -9 -13 -14 0 -6 5 -7 10 -4
6 3 10 1 10 -4 0 -14 -13 -14 -28 1 -9 9 -11 6 -7 -10 2 -15 -1 -22 -11 -22
-9 0 -12 5 -8 13 5 9 4 9 -6 0 -16 -15 -3 -36 19 -28 12 5 13 3 4 -6 -13 -13
-6 -42 8 -33 5 3 9 0 9 -5 0 -17 -11 -13 -38 12 -14 12 -22 16 -17 8 14 -23
12 -72 -2 -66 -7 2 -12 -1 -10 -8 1 -7 -5 -11 -13 -9 -8 2 -12 0 -8 -3 4 -4 3
-16 -3 -26 -9 -17 -7 -18 16 -7 16 7 21 14 14 18 -7 5 -8 10 -1 14 6 3 14 -6
19 -21 l10 -28 17 27 c10 15 39 80 65 145 l48 118 71 3 c95 4 93 22 -2 22
l-74 0 -20 -42z"/>
<path d="M10373 12705 c0 -22 2 -30 4 -17 2 12 2 30 0 40 -3 9 -5 -1 -4 -23z"/>
<path d="M6806 12648 c-7 -18 -30 -71 -50 -116 -20 -46 -36 -85 -36 -87 0 -2
8 -6 18 -8 9 -2 3 -2 -15 0 -17 2 -34 -1 -38 -7 -3 -5 2 -11 12 -12 10 -1 -11
-4 -47 -8 -45 -5 -9 -7 118 -8 l182 -2 0 140 0 140 -65 0 c-64 0 -65 -1 -79
-32z m119 -218 c17 -7 14 -9 -13 -9 -20 -1 -31 3 -27 9 7 12 13 12 40 0z m-92
-7 c-7 -2 -19 -2 -25 0 -7 3 -2 5 12 5 14 0 19 -2 13 -5z"/>
<path d="M10382 12600 c0 -19 2 -27 5 -17 2 9 2 25 0 35 -3 9 -5 1 -5 -18z"/>
<path d="M10383 12510 c0 -25 2 -35 4 -22 2 12 2 32 0 45 -2 12 -4 2 -4 -23z"/>
<path d="M10540 12469 c-47 -28 -92 -58 -100 -67 -14 -14 -13 -14 10 0 14 8
59 34 100 58 86 49 85 48 79 55 -3 2 -43 -18 -89 -46z"/>
<path d="M10515 12412 c-98 -60 -110 -71 -111 -97 -2 -27 -1 -27 3 -3 3 21 24
38 101 84 117 69 139 84 127 84 -6 0 -60 -30 -120 -68z"/>
<path d="M9992 12450 c0 -14 2 -19 5 -12 2 6 2 18 0 25 -3 6 -5 1 -5 -13z"/>
<path d="M6635 12440 c-3 -6 1 -7 9 -4 18 7 21 14 7 14 -6 0 -13 -4 -16 -10z"/>
<path d="M10392 12420 c0 -19 2 -27 5 -17 2 9 2 25 0 35 -3 9 -5 1 -5 -18z"/>
<path d="M10030 12421 c0 -25 6 -27 13 -6 4 8 2 17 -3 20 -6 4 -10 -3 -10 -14z"/>
<path d="M10062 12390 c0 -19 2 -27 5 -17 2 9 2 25 0 35 -3 9 -5 1 -5 -18z"/>
<path d="M6600 12370 c0 -5 5 -10 10 -10 6 0 10 5 10 10 0 6 -4 10 -10 10 -5
0 -10 -4 -10 -10z"/>
<path d="M6658 12373 c6 -2 18 -2 25 0 6 3 1 5 -13 5 -14 0 -19 -2 -12 -5z"/>
<path d="M10231 12225 c-63 -63 -112 -117 -110 -120 3 -2 59 50 124 115 66 66
115 120 110 120 -6 0 -62 -52 -124 -115z"/>
<path d="M10073 12295 c0 -22 2 -30 4 -17 2 12 2 30 0 40 -3 9 -5 -1 -4 -23z"/>
<path d="M15455 12293 c-139 -15 -194 -33 -243 -81 -36 -35 -45 -58 -28 -75 8
-7 16 -22 18 -33 2 -10 11 -18 18 -16 8 2 44 6 80 9 130 11 238 -34 279 -116
38 -73 37 -172 -3 -370 -5 -21 -2 -23 22 -18 61 12 147 51 182 83 21 19 48 57
60 86 12 28 28 58 36 65 30 30 12 292 -23 333 -7 8 -25 30 -40 49 -37 46 -96
70 -190 76 -43 3 -91 7 -108 8 -16 2 -43 2 -60 0z"/>
<path d="M17268 12279 c-46 -9 -102 -26 -124 -37 -57 -29 -131 -113 -164 -186
-38 -83 -67 -223 -51 -248 14 -22 14 -41 1 -33 -6 4 -10 -8 -10 -28 0 -22 6
-37 15 -41 12 -4 15 4 15 38 0 117 51 272 102 307 49 34 172 60 301 63 15 1
27 2 27 2 0 1 -12 9 -26 19 -15 9 -23 11 -19 4 6 -8 4 -10 -4 -4 -29 17 10 24
91 15 73 -9 173 -37 143 -41 -5 0 -26 -2 -45 -4 -19 -1 -39 -3 -44 -4 -4 0 23
-33 60 -71 88 -91 118 -138 154 -241 42 -120 53 -208 53 -429 1 -202 -12 -308
-48 -384 -9 -19 -17 -40 -19 -48 -1 -7 -5 -19 -9 -25 -5 -7 -6 -13 -2 -13 3 0
1 -9 -5 -20 -16 -29 15 -26 78 8 111 59 188 152 237 287 10 28 22 55 27 61 4
6 6 18 3 26 -4 9 1 18 10 22 10 3 16 18 16 38 0 18 4 112 7 208 7 170 -4 328
-27 407 -18 62 -91 172 -148 223 -101 89 -208 130 -363 136 -52 2 -107 6 -122
7 -15 2 -64 -4 -110 -14z m-331 -551 c-3 -8 -6 -5 -6 6 -1 11 2 17 5 13 3 -3
4 -12 1 -19z"/>
<path d="M10215 12170 c-66 -66 -115 -120 -110 -120 13 0 241 228 234 234 -3
3 -59 -49 -124 -114z"/>
<path d="M19473 12276 c-72 -17 -152 -65 -205 -124 -57 -63 -111 -180 -122
-262 -2 -19 -7 -42 -11 -51 -3 -10 -2 -20 4 -24 6 -3 11 -11 11 -16 0 -6 -5
-7 -10 -4 -6 3 -14 -4 -19 -17 -10 -26 -6 -38 13 -38 8 0 19 32 30 83 33 157
76 220 176 258 46 18 70 20 146 16 108 -6 166 -30 220 -89 50 -56 66 -99 72
-200 6 -102 -1 -98 144 -98 92 0 97 1 117 26 18 23 21 41 21 138 0 128 -17
208 -59 276 -32 53 -96 104 -149 121 -59 18 -307 21 -379 5z"/>
<path d="M22467 12275 c-163 -33 -277 -124 -277 -224 0 -37 24 -47 38 -16 9
18 29 30 82 46 95 28 245 24 309 -9 51 -27 180 -152 246 -241 28 -36 57 -66
65 -66 8 0 22 14 31 32 12 24 19 29 27 21 7 -7 12 -18 12 -25 0 -9 18 -13 64
-13 60 0 64 2 70 25 3 13 17 35 31 49 29 29 32 46 8 53 -10 2 -36 42 -60 91
-76 159 -173 247 -302 276 -85 19 -249 20 -344 1z m171 -132 c-10 -2 -26 -2
-35 0 -10 3 -2 5 17 5 19 0 27 -2 18 -5z m49 -9 c-3 -3 -12 -4 -19 -1 -8 3 -5
6 6 6 11 1 17 -2 13 -5z"/>
<path d="M14367 12270 c-88 -11 -181 -62 -263 -144 -58 -58 -81 -91 -123 -178
-46 -92 -54 -117 -60 -188 -6 -74 -5 -82 12 -92 19 -10 20 -7 15 36 -3 25 -2
44 2 41 4 -3 10 10 13 28 17 100 96 226 168 262 48 25 106 19 140 -14 38 -38
37 -65 -6 -145 -49 -92 -46 -152 9 -198 32 -26 105 -38 237 -38 91 0 127 -4
152 -16 56 -29 248 -6 309 37 14 11 33 19 42 19 8 0 40 9 70 21 49 18 61 28
101 88 45 66 55 103 34 117 -7 4 -22 -7 -36 -24 -31 -41 -88 -56 -175 -48 -86
8 -93 11 -118 53 -23 39 -36 40 -115 9 -47 -18 -156 -20 -205 -3 -26 9 -37 20
-45 45 -5 17 -15 32 -22 32 -7 0 -13 3 -13 7 0 12 54 113 61 113 4 0 12 15 19
34 12 38 1 77 -32 113 -18 19 -33 25 -98 37 -8 2 -41 0 -73 -4z"/>
<path d="M10401 12254 c0 -11 3 -14 6 -6 3 7 2 16 -1 19 -3 4 -6 -2 -5 -13z"/>
<path d="M21540 12259 c-127 -25 -267 -145 -338 -290 -49 -101 -67 -173 -55
-220 9 -33 9 -32 22 27 19 86 76 188 128 231 36 29 55 37 98 41 47 4 57 1 79
-21 36 -36 33 -78 -9 -163 -39 -77 -41 -90 -21 -138 24 -58 73 -79 195 -83
149 -6 148 -5 155 -55 17 -112 104 -222 217 -275 35 -17 141 -52 234 -78 322
-89 373 -104 426 -129 67 -30 104 -62 119 -101 12 -32 10 -165 -2 -165 -4 0
-8 -4 -8 -9 0 -12 83 5 136 28 73 33 101 58 129 119 15 31 34 71 42 89 21 44
9 120 -27 177 -23 36 -43 52 -112 85 -46 22 -108 48 -138 56 -316 85 -507 142
-525 155 -5 4 -22 10 -37 14 -38 9 -143 109 -168 161 -12 24 -24 72 -28 107
-8 72 1 68 -128 53 -97 -12 -153 1 -191 42 -18 19 -33 43 -33 53 0 22 48 127
61 136 5 3 9 25 9 48 0 32 -6 50 -25 70 -42 46 -100 56 -205 35z"/>
<path d="M20420 12240 c0 -5 -5 -10 -11 -10 -6 0 -24 -13 -39 -30 -15 -16 -33
-30 -39 -30 -20 0 -12 -51 9 -57 11 -3 17 -9 14 -14 -3 -5 -9 -7 -14 -4 -5 3
-11 1 -14 -4 -10 -15 15 -25 74 -29 30 -2 71 -11 90 -20 42 -20 47 -46 27
-125 -11 -43 -15 -158 -16 -549 l-2 -495 32 -7 c17 -3 74 -6 126 -6 71 0 100
4 119 17 l26 16 -4 156 c-1 86 -2 388 0 671 3 491 3 515 -15 521 -29 12 -363
11 -363 -1z"/>
<path d="M10082 12215 c0 -16 2 -22 5 -12 2 9 2 23 0 30 -3 6 -5 -1 -5 -18z"/>
<path d="M10401 12223 c0 -5 4 -17 9 -28 8 -18 9 -17 9 8 1 15 -3 27 -9 27 -5
0 -10 -3 -9 -7z"/>
<path d="M10083 12140 c0 -25 2 -35 4 -22 2 12 2 32 0 45 -2 12 -4 2 -4 -23z"/>
<path d="M10412 12135 c0 -22 3 -60 7 -85 l8 -45 1 55 c0 30 -4 69 -8 85 -7
29 -8 28 -8 -10z"/>
<path d="M13764 11920 c0 -140 2 -198 3 -127 2 70 2 184 0 255 -1 70 -3 12 -3
-128z"/>
<path d="M13980 12070 c-42 -35 -45 -41 -42 -78 l4 -40 27 51 c15 29 36 65 45
80 24 35 20 34 -34 -13z"/>
<path d="M21191 12074 c-17 -14 -35 -23 -41 -19 -6 4 -10 -13 -10 -46 0 -29 3
-50 6 -46 9 9 83 137 79 137 -2 0 -17 -12 -34 -26z"/>
<path d="M10097 11955 c3 -44 9 -84 14 -89 9 -10 1 95 -11 139 -6 19 -7 1 -3
-50z"/>
<path d="M16590 11961 c-42 -28 -115 -86 -163 -131 -98 -92 -147 -175 -171
-290 l-14 -65 -4 80 c-2 44 -4 -41 -4 -190 0 -148 2 -229 5 -180 l6 90 9 -50
c11 -58 9 -52 24 -88 7 -16 12 -31 12 -34 0 -20 116 -176 154 -208 l47 -38 41
16 c38 16 43 16 60 1 19 -18 15 -36 -6 -28 -8 3 -36 -4 -63 -15 -83 -35 -312
-57 -328 -31 -3 6 -19 10 -34 10 -15 0 -52 7 -82 16 -71 21 -149 97 -175 171
-28 78 -56 81 -98 9 -59 -101 -151 -165 -273 -191 -80 -17 -333 -20 -438 -5
-151 22 -265 78 -309 152 -15 26 -30 73 -37 118 -6 41 -15 80 -20 86 -9 11 1
55 21 95 l13 24 -24 -21 c-13 -12 -51 -39 -84 -59 -75 -47 -161 -128 -186
-177 -23 -45 -25 -162 -5 -221 40 -112 172 -190 367 -217 102 -15 406 -14 444
0 15 6 68 22 118 36 51 14 127 39 169 56 73 29 79 30 100 14 69 -50 109 -71
161 -88 57 -17 194 -34 267 -32 50 2 218 42 265 64 22 10 69 30 104 44 91 37
115 54 101 71 -9 11 -7 15 13 20 17 5 50 -7 120 -44 153 -80 374 -138 568
-148 87 -5 104 -3 190 25 147 48 293 92 301 92 4 0 14 -16 22 -35 23 -55 47
-60 189 -46 67 7 210 16 317 20 174 6 197 9 218 26 15 14 48 23 105 30 78 10
82 11 85 36 2 15 13 31 26 38 19 11 34 7 112 -33 145 -74 258 -106 489 -141
22 -3 114 -8 205 -11 181 -5 219 1 332 56 33 16 76 34 96 41 20 6 82 34 137
63 124 64 228 162 293 277 48 85 69 135 60 144 -13 13 -39 -11 -74 -72 -74
-126 -198 -218 -374 -279 -80 -28 -445 -28 -570 0 -120 26 -260 78 -343 127
-81 48 -230 186 -223 206 3 7 1 13 -4 13 -10 0 -45 60 -42 73 1 4 -3 7 -9 7
-6 0 -9 6 -6 14 3 8 0 17 -8 20 -38 14 -89 307 -58 332 11 10 11 13 -4 18 -14
6 -15 9 -4 15 10 7 10 10 1 13 -32 10 55 211 130 302 22 26 40 50 40 52 0 2
-26 -13 -57 -33 -234 -152 -352 -291 -389 -460 -13 -60 -12 -251 2 -319 17
-84 83 -220 136 -279 34 -37 45 -44 93 -50 41 -5 55 -11 55 -22 0 -15 -28 -15
-282 -8 -156 4 -306 7 -334 7 l-52 1 -6 45 c-3 25 -3 87 0 138 6 87 6 92 -15
103 -12 7 -25 9 -30 6 -5 -3 -26 -37 -46 -76 -58 -113 -155 -195 -286 -245
-68 -25 -86 -28 -219 -28 -165 -1 -215 10 -370 77 -173 74 -278 147 -380 263
-110 126 -168 264 -177 429 -3 55 -9 105 -13 110 -21 27 45 189 117 286 24 33
40 59 35 59 -4 0 -41 -22 -82 -49z m518 -1292 c37 -7 70 -15 74 -18 10 -8 -71
-5 -97 4 -28 9 -84 37 -62 31 10 -3 48 -11 85 -17z"/>
<path d="M10429 11962 c5 -34 6 -35 9 -8 2 16 0 32 -5 37 -5 5 -7 -7 -4 -29z"/>
<path d="M13684 11840 c0 -52 1 -74 3 -47 2 26 2 68 0 95 -2 26 -3 4 -3 -48z"/>
<path d="M13722 11895 c0 -16 2 -22 5 -12 2 9 2 23 0 30 -3 6 -5 -1 -5 -18z"/>
<path d="M10430 11885 c0 -8 4 -15 10 -15 5 0 7 7 4 15 -4 8 -8 15 -10 15 -2
0 -4 -7 -4 -15z"/>
<path d="M10112 11820 c0 -19 2 -27 5 -17 2 9 2 25 0 35 -3 9 -5 1 -5 -18z"/>
<path d="M10123 11725 c0 -22 2 -30 4 -17 2 12 2 30 0 40 -3 9 -5 -1 -4 -23z"/>
<path d="M20472 11691 c-2 -19 -5 -21 -16 -12 -11 9 -72 11 -228 7 -117 -3
-417 -5 -665 -4 -448 1 -453 0 -453 -20 0 -11 7 -23 16 -26 8 -3 12 -11 9 -17
-4 -6 -4 -39 0 -74 l6 -63 176 -2 c107 0 204 -6 251 -15 88 -17 301 -19 412
-4 41 5 111 14 154 19 50 6 97 19 127 35 27 14 62 25 78 25 58 0 91 12 91 32
0 10 12 29 26 41 21 19 25 29 21 62 -2 22 -4 29 -5 16z"/>
<path d="M10313 11675 c0 -8 4 -12 9 -9 5 3 6 10 3 15 -9 13 -12 11 -12 -6z"/>
<path d="M10485 11654 c-22 -20 -31 -31 -20 -26 18 9 74 62 64 62 -2 -1 -22
-17 -44 -36z"/>
<path d="M10126 11644 c-4 -15 -2 -32 3 -37 8 -8 11 0 11 26 0 44 -5 47 -14
11z"/>
<path d="M15810 11648 c-41 -35 -115 -64 -315 -124 -104 -31 -212 -67 -239
-81 -64 -33 -144 -108 -166 -158 -22 -49 -32 -113 -19 -120 5 -4 9 0 9 7 0 9
3 9 10 -2 8 -13 10 -13 10 2 0 10 13 33 30 51 25 28 50 41 144 71 120 38 204
56 270 56 l38 0 -5 -167 c-3 -116 -10 -185 -22 -223 -9 -30 -17 -61 -17 -67
-1 -7 -4 -13 -8 -13 -4 0 -7 -7 -7 -15 0 -18 2 -18 63 0 101 30 189 116 228
221 10 27 24 54 30 59 25 21 38 147 34 335 -3 176 -4 185 -23 187 -11 2 -31
-7 -45 -19z"/>
<path d="M18283 11613 c15 -2 39 -2 55 0 15 2 2 4 -28 4 -30 0 -43 -2 -27 -4z"/>
<path d="M10229 11573 l-34 -38 38 34 c34 33 42 41 34 41 -2 0 -19 -17 -38
-37z"/>
<path d="M10455 11600 c-4 -6 -10 -8 -15 -5 -5 3 -11 1 -14 -4 -8 -13 22 -7
36 7 7 7 9 12 6 12 -4 0 -10 -5 -13 -10z"/>
<path d="M10395 11560 c-3 -6 1 -7 9 -4 18 7 21 14 7 14 -6 0 -13 -4 -16 -10z"/>
<path d="M10169 11513 c-13 -16 -12 -17 4 -4 16 13 21 21 13 21 -2 0 -10 -8
-17 -17z"/>
<path d="M10349 11483 c-13 -16 -12 -17 4 -4 9 7 17 15 17 17 0 8 -8 3 -21
-13z"/>
<path d="M10303 11423 c-31 -45 -34 -51 -23 -58 6 -4 10 -3 9 2 -3 18 2 30 22
52 12 12 19 25 16 27 -3 3 -14 -7 -24 -23z"/>
<path d="M10090 11410 c-6 -11 -8 -20 -6 -20 3 0 10 9 16 20 6 11 8 20 6 20
-3 0 -10 -9 -16 -20z"/>
<path d="M10045 11319 c-4 -6 -5 -12 -2 -15 2 -3 7 2 10 11 7 17 1 20 -8 4z"/>
<path d="M10025 11279 c-4 -6 -5 -12 -2 -15 2 -3 7 2 10 11 7 17 1 20 -8 4z"/>
<path d="M21927 11225 c-26 -25 -52 -45 -57 -45 -5 0 -10 -26 -12 -57 -3 -56
-4 -58 -29 -55 -14 2 -31 -3 -37 -11 -12 -14 -26 -127 -38 -297 -6 -78 -4 -87
15 -107 26 -27 35 -28 91 -8 69 24 131 24 252 -1 62 -13 129 -26 148 -28 19
-3 53 -10 75 -15 22 -5 63 -12 90 -15 28 -3 64 -10 80 -15 35 -10 140 2 204
24 111 38 341 144 410 190 82 54 151 132 199 223 47 90 84 212 63 212 -6 0
-11 -7 -11 -15 0 -8 -4 -15 -9 -15 -5 0 -16 -21 -25 -46 -34 -102 -114 -193
-221 -254 -29 -17 -101 -47 -161 -67 -106 -36 -113 -37 -259 -38 -113 0 -164
4 -205 17 -274 83 -381 99 -434 65 -14 -9 -30 -17 -36 -17 -6 0 -10 68 -10
198 0 189 -5 222 -30 222 -4 0 -28 -20 -53 -45z m442 -561 c9 -8 -45 -2 -64 6
-14 7 -8 8 20 3 22 -3 42 -7 44 -9z m44 -11 c-7 -2 -19 -2 -25 0 -7 3 -2 5 12
5 14 0 19 -2 13 -5z"/>
<path d="M10395 11240 c-3 -5 -1 -10 4 -10 6 0 11 5 11 10 0 6 -2 10 -4 10 -3
0 -8 -4 -11 -10z"/>
<path d="M20280 11106 c-25 -24 -56 -62 -69 -85 -14 -22 -33 -43 -43 -47 -19
-6 -43 -42 -34 -51 17 -18 125 81 175 161 50 80 39 88 -29 22z"/>
<path d="M6685 11100 l-260 -6 263 -2 c169 -1 262 2 262 8 0 6 -1 9 -2 8 -2
-1 -120 -5 -263 -8z"/>
<path d="M10357 11083 c-4 -3 -2 -15 4 -26 7 -13 7 -17 1 -13 -6 3 -13 2 -17
-4 -3 -5 3 -10 14 -10 16 0 21 6 21 24 0 25 -12 40 -23 29z"/>
<path d="M10321 11057 c-6 -8 -8 -17 -4 -20 7 -8 33 11 33 24 0 13 -16 11 -29
-4z"/>
<path d="M10413 11023 c9 -9 19 -14 23 -11 10 10 -6 28 -24 28 -15 0 -15 -1 1
-17z"/>
<path d="M10420 10930 c0 -5 7 -10 16 -10 8 0 12 5 9 10 -3 6 -10 10 -16 10
-5 0 -9 -4 -9 -10z"/>
<path d="M10420 10880 c0 -6 7 -10 15 -10 8 0 15 2 15 4 0 2 -7 6 -15 10 -8 3
-15 1 -15 -4z"/>
<path d="M13615 10839 c-33 -5 -136 -8 -229 -7 l-170 1 -44 -41 c-24 -23 -48
-42 -53 -42 -8 0 -14 -30 -10 -52 1 -8 -15 -12 -31 -9 -5 0 -8 -18 -7 -41 0
-24 3 -38 5 -31 4 8 13 9 28 3 49 -18 239 -22 366 -6 69 8 195 18 280 21 152
6 240 19 240 36 0 5 -10 10 -22 11 -13 0 34 4 103 8 168 10 196 15 205 42 4
12 17 31 30 41 13 10 24 27 24 37 0 20 35 18 -535 33 -66 2 -147 0 -180 -4z"/>
<path d="M20375 10790 c-30 -25 -57 -56 -61 -70 -4 -14 -16 -35 -27 -48 -35
-37 -9 -51 124 -64 97 -10 138 -9 259 5 80 9 213 19 295 22 151 6 239 20 229
36 -3 5 -15 10 -27 11 -12 0 34 4 103 8 183 11 210 16 210 46 0 13 5 24 11 24
18 0 39 27 39 50 0 21 -4 21 -122 21 -68 0 -315 1 -551 2 l-427 2 -55 -45z"/>
<path d="M18035 10153 c-326 -43 -702 -233 -817 -412 -15 -25 -28 -40 -28 -35
0 6 13 31 29 56 l29 45 -52 -31 c-126 -77 -231 -167 -262 -227 -18 -36 -21
-118 -4 -148 11 -21 120 -100 179 -130 77 -40 159 -54 306 -55 347 -1 769 127
1306 394 109 54 220 111 246 126 50 29 103 72 103 85 0 5 11 25 25 45 27 39
31 73 15 105 -18 32 -13 34 -324 -111 -205 -95 -522 -210 -711 -259 -183 -47
-410 -64 -555 -40 -76 12 -110 31 -110 61 l0 22 15 -21 c30 -43 164 -57 265
-27 114 34 436 185 489 229 38 33 99 123 116 173 18 52 -10 106 -68 132 -43
19 -138 30 -192 23z m10 -173 c-30 -33 -340 -119 -429 -120 -50 0 -26 8 106
34 132 27 265 66 308 91 34 19 36 19 15 -5z"/>
<path d="M15238 10025 c-23 -13 -111 -123 -188 -235 -14 -19 -28 -39 -32 -45
-5 -5 -38 -49 -74 -97 -36 -49 -68 -88 -71 -88 -7 0 5 18 107 155 53 72 118
162 145 200 l50 70 -63 -55 c-35 -30 -80 -66 -99 -79 -53 -34 -217 -195 -279
-272 -122 -153 -142 -214 -84 -263 84 -70 205 -39 555 144 83 43 191 93 240
110 l90 32 160 -8 c88 -5 246 -9 350 -8 161 0 204 4 280 23 114 28 243 76 415
155 105 48 136 66 138 82 2 12 14 32 28 45 27 25 31 60 9 79 -27 23 -97 23
-180 1 -204 -53 -509 -72 -770 -48 -88 9 -187 14 -220 12 -86 -5 -219 -47
-370 -116 -71 -33 -136 -63 -142 -66 -8 -3 -13 2 -13 13 0 9 3 15 6 11 4 -3
18 0 33 7 30 16 121 162 121 195 0 25 -53 61 -90 61 -14 -1 -37 -7 -52 -15z"/>
<path d="M13345 10023 c-39 -10 -131 -52 -202 -92 -40 -23 -79 -41 -86 -41
-47 0 -292 -213 -327 -284 -30 -62 -9 -116 54 -141 46 -19 138 -14 209 11 58
20 67 18 67 -15 0 -17 4 -33 10 -36 12 -7 125 65 233 148 l78 60 117 -17 c64
-10 178 -20 252 -23 162 -7 248 8 409 68 163 62 376 164 373 178 -1 7 11 28
28 47 35 41 36 48 10 76 -25 27 -102 29 -180 5 -189 -59 -198 -61 -370 -60
-215 0 -377 28 -528 93 -67 29 -102 34 -147 23z m-121 -236 c-10 -27 -143
-127 -168 -127 -8 0 -30 -9 -48 -20 -75 -45 -70 -13 6 42 29 21 42 25 52 17
16 -13 34 -4 105 55 61 51 60 51 53 33z"/>
<path d="M10100 6676 c0 -9 -7 -12 -20 -9 -12 3 -22 -1 -26 -11 -3 -9 -11 -13
-16 -10 -5 4 -24 -7 -41 -24 -18 -16 -42 -33 -54 -36 -18 -6 -21 -12 -17 -36
5 -24 2 -31 -25 -44 -18 -10 -31 -24 -31 -35 0 -11 -4 -21 -10 -23 -14 -4 0
-48 15 -48 7 0 15 9 18 20 13 49 140 55 232 12 129 -62 201 -198 169 -321 -7
-29 -11 -58 -8 -62 3 -5 0 -9 -5 -9 -6 0 -11 -4 -11 -10 0 -17 45 -11 68 10
12 11 27 20 35 20 8 0 22 9 32 20 10 11 24 20 32 20 8 0 23 9 35 20 12 11 30
20 40 20 10 0 18 5 18 10 0 6 -4 10 -10 10 -5 0 -10 7 -10 15 0 9 9 15 22 15
17 0 19 3 10 12 -17 17 -15 28 7 28 27 0 47 26 27 37 -19 11 -31 59 -16 68 7
4 14 -2 17 -14 10 -38 28 -16 34 40 3 30 4 57 2 62 -7 12 -43 -13 -44 -31 -1
-11 -4 -8 -8 8 -6 18 -3 31 11 46 23 26 24 48 1 39 -31 -12 -35 -10 -45 15 -7
20 -7 22 3 13 9 -9 16 -10 26 -2 21 18 15 29 -16 29 -16 0 -37 7 -45 16 -20
20 -20 22 2 20 9 0 17 6 17 14 0 9 -7 14 -18 12 -10 -2 -33 7 -50 20 -48 35
-84 51 -96 43 -7 -4 -10 -1 -9 7 2 10 -24 14 -119 16 -100 2 -123 0 -123 -12z"/>
<path d="M13010 6374 c0 -3 5 -15 11 -26 9 -17 13 -18 20 -7 14 22 10 35 -11
36 -11 1 -20 -1 -20 -3z"/>
<path d="M12990 6218 c0 -7 4 -19 9 -27 7 -11 11 -10 20 7 15 28 14 32 -9 32
-11 0 -20 -6 -20 -12z"/>
<path d="M12970 6151 c0 -5 3 -17 6 -26 5 -13 8 -14 15 -3 13 20 11 38 -6 38
-8 0 -15 -4 -15 -9z"/>
</g>
</svg>
